<svg xmlns="http://www.w3.org/2000/svg" viewBox="0 0 374.82 374.88"><defs><style>.a{fill:#ee4980;}.b{fill:#f62654;}.c{fill:#f86182;}.d{fill:#f06192;}.e{fill:#fa8ea6;}.f{fill:#f74c71;}.g{fill:#f598b8;}.h{fill:#f59bba;}.i{fill:#f279a2;}.j{fill:#fb94aa;}.k{fill:#f9708d;}.l{fill:#facfde;}.m{fill:#f9c6d7;}.n{fill:#fdcbd6;}.o{fill:#fb0f36;}.p{fill:#f13e72;}.q{fill:#fa123a;}.r{fill:#f04075;}.s{fill:#fb0d33;}.t{fill:#fd072c;}.u{fill:#fa133c;}.v{fill:#f04379;}.w{fill:#fc0b31;}.x{fill:#fd0428;}.y{fill:#fc092e;}.z{fill:#f43060;}.aa{fill:#ef457b;}.ab{fill:#ef477d;}.ac{fill:#f42d5d;}.ad{fill:#f33364;}.ae{fill:#f33465;}.af{fill:#fe0125;}.ag{fill:#f52b5a;}.ah{fill:#f62653;}.ai{fill:#f91841;}.aj{fill:#f7204c;}.ak{fill:#f62450;}.al{fill:#f52857;}.am{fill:#f62451;}.an{fill:#f81b45;}.ao{fill:#f91943;}.ap{fill:#f52a58;}.aq{fill:#f62755;}.ar{fill:#f7224f;}.as{fill:#f81e49;}.at{fill:#f9153e;}.au{fill:#f81e4a;}.av{fill:#f7224e;}.aw{fill:#f91640;}.ax{fill:#f23668;}.ay{fill:#f81c47;}.az{fill:#fa153e;}.ba{fill:#f13c6f;}.bb{fill:#f2386b;}.bc{fill:#f23a6d;}.bd{fill:#f13b6f;}.be{fill:#f2396c;}.bf{fill:#f23669;}.bg{fill:#f42e5e;}.bh{fill:#f52c5b;}.bi{fill:#f52a59;}.bj{fill:#fdfdfd;}.bk{fill:#fefefe;}.bl{fill:#f23769;}.bm{fill:#f62856;}</style></defs><path class="a" d="M360.27,115.1a153.8,153.8,0,0,1,6.33,17.27,183.6,183.6,0,0,1,6.72,31.17c.64,5,1.08,10.07,1.29,15.13a5.44,5.44,0,0,1,.08,1.45V182a7.07,7.07,0,0,0,.13,2v5.52a14.7,14.7,0,0,0-.13,2.89v2.12a5.66,5.66,0,0,1-.07,1.48,185.27,185.27,0,0,1-10.36,53.58c-1.22,3.45-2.45,6.91-4,10.23-.66.05-.57-.46-.56-.82.08-3.9.06-7.81,0-11.71s0-8,0-12V116.15C359.72,115.72,359.5,115.15,360.27,115.1Z"/><path class="b" d="M196.15,0c.13.37.49.16.72.29.55.6.39,1.36.39,2.06v87a2.38,2.38,0,0,1-.12,1.06,1.5,1.5,0,0,1-1.11.35H186a2.4,2.4,0,0,1-.7-.13c-.71-.41-.69-1.15-.68-1.8v-84c0-1.5-.08-3,.06-4.52.18-.37.62-.1.85-.35h4.16A18.41,18.41,0,0,0,193,.15,12,12,0,0,0,195.72,0Z"/><path class="c" d="M193.05.23A8.17,8.17,0,0,1,189.68,0H193c.07,0,.1.09.08.14S193.08.23,193.05.23Z"/><path class="d" d="M374.59,192.37c.09-1-.27-2,.23-2.89v2.88C374.72,192.46,374.72,192.47,374.59,192.37Z"/><path class="e" d="M193.05.23V0h2.67C194.84.56,193.92.12,193.05.23Z"/><path class="f" d="M185.6,0c-.17.28-.46.23-.72.25a1.73,1.73,0,0,1-1.83.12A.28.28,0,0,1,183,0Z"/><path class="g" d="M374.59,192.37h.23v2.15q-.09.16-.21,0Z"/><path class="h" d="M374.6,182v-1.92c.08-.09.15-.08.21,0V182C374.72,182.15,374.66,182.15,374.6,182Z"/><path class="i" d="M374.6,182h.22v2C374.36,183.36,374.66,182.68,374.6,182Z"/><path class="j" d="M179.61,0h1.91a.24.24,0,0,1-.05.34h0a2,2,0,0,1-1.77,0,.26.26,0,0,1-.07-.35Z"/><path class="k" d="M181.51.23a.74.74,0,0,0,0-.21H183a.81.81,0,0,1,0,.22,1,1,0,0,1-1.41,0Z"/><path class="l" d="M374.82,180.13h-.21v-1.44h.21Z"/><path class="m" d="M374.61,194.53h.21V196h-.2C374.62,195.49,374.61,195,374.61,194.53Z"/><path class="n" d="M179.61,0a.74.74,0,0,1,0,.21,1,1,0,0,1-1.41,0l0,0a.74.74,0,0,0,0-.21Z"/><path class="o" d="M82.24,342.48A129.15,129.15,0,0,1,69,332.66c.52-3.42.21-6.86.24-10.28.06-6.11,0-12.22,0-18.33V251.36c0-2.79-.1-5.59-.1-8.38,0-39.61-.08-79.22,0-118.83q0-14,.12-28V48.2c0-2.07.11-4.15,0-6.23a149.08,149.08,0,0,1,13.33-9.88c.62-.06.57.44.63.8a8.66,8.66,0,0,1,0,1.44V237.58c0,9.5-.07,19-.07,28.5v74.69C83.21,341.54,83.22,342.32,82.24,342.48Z"/><path class="p" d="M304.55,41.29a31,31,0,0,1,4.53,3.62c2.73,2.3,5.42,4.65,7.93,7.2a3.54,3.54,0,0,1,.54,2.17V311.65c0,3.51.06,7,0,10.53A112.33,112.33,0,0,1,306,332.44c-.67-.29-.73-.88-.73-1.5V279a2.27,2.27,0,0,0-.36-1.24c-.17-.57.21-1,.45-1.43,4.06-7.71,4-15.32-.58-22.81a2.37,2.37,0,0,1-.59-1.77,11.14,11.14,0,0,0,.19-2.38V44.22C304.42,43.25,304,42.24,304.55,41.29Z"/><path class="q" d="M82.24,342.48a1.36,1.36,0,0,0,.67-1.44,54,54,0,0,1-.1-6.61c0-2.2,0-4.41,0-6.62.06-1.53,0-3.09,0-4.64V285c0-1.59,0-3.17,0-4.76s0-3.32,0-5v-9.63c0-1.7.07-3.18.09-4.76s0-3,0-4.54v-5.1c0-1.7-.09-3.17-.08-4.76,0-1.41.11-2.82.12-4.23V33.53c0-.48.22-1-.32-1.44A114.79,114.79,0,0,1,93,25.58c.53.24.57.73.61,1.21s0,1.12,0,1.67V347.55c0,.67.11,1.39-.68,1.76A98.62,98.62,0,0,1,82.24,342.48Z"/><path class="r" d="M317.54,322.18c-.59-1.65-.26-3.37-.31-5.06-.07-3,0-6,0-9V58.4a39.79,39.79,0,0,0-.2-6.27c3.14,2.8,6,5.92,8.83,9a40.76,40.76,0,0,1,3.65,4.22,41.13,41.13,0,0,1,.12,6.08v236c0,.59.47,1.13.14,1.74A134.81,134.81,0,0,1,317.54,322.18Z"/><path class="s" d="M69.3,42c1,.67.38,1.66.42,2.47.11,2.33,0,4.67,0,7s0,4.53,0,6.81c0,1.52,0,3,.06,4.55v6.7c0,1.52-.12,3-.08,4.56.06,2.42,0,4.84,0,7.27,0,2.18.08,4.37.08,6.55s-.07,4.54-.07,6.81v11.59c0,2.19.08,4.37.08,6.56s-.14,4.54,0,6.8c0,1.2-.18,2.35-.18,3.54V244.05c0,2.57.31,5.14.16,7.69-.13,2.21,0,4.42-.07,6.62a42,42,0,0,0,.06,4.76c.13,1.58-.1,3.17-.11,4.76s.13,3.17.13,4.76-.1,3.17-.11,4.76.07,3.17.09,4.76,0,3,0,4.54v5.09c0,1.69-.07,3.18-.09,4.77s0,3,0,4.53v5.1c0,1.7.08,3.17.1,4.76s0,3,0,4.54v14.63c0,.86.27,1.87-.63,2.55a125.14,125.14,0,0,1-10.59-9.34c.19-2.31.07-4.62.07-6.93V249.81c0-5-.12-10-.1-15V135c0-6.23.07-12.46.06-18.69V53.78a6.18,6.18,0,0,0-.3-2A129.77,129.77,0,0,1,68,43.09,12.25,12.25,0,0,1,69.3,42Z"/><path class="t" d="M39.72,302.71a74.86,74.86,0,0,1-5.83-7.79c-2.31-3.33-4.63-6.66-6.61-10.21a19.23,19.23,0,0,1-.09-2.15V124.31c0-10.55,0-21.09-.07-31.64a5.26,5.26,0,0,0-.27-1.76A134.17,134.17,0,0,1,34.53,79a69.79,69.79,0,0,1,4.75-6.34c.59-.28.7.17.78.56a7.17,7.17,0,0,1,.07,1.67c0,14.79-.15,29.58,0,44.36.15,10.86.1,21.72.13,32.58V243c0,8.26,0,16.51,0,24.77v33.86C40.22,302.05,40.49,302.66,39.72,302.71Z"/><path class="u" d="M93,349.3c.68-.89.35-2,.34-2.89V329.22c0-4.78-.08-9.56-.08-14.34s.07-9.57.07-14.35c0-4.11-.07-8.22-.07-12.33,0-3.56.07-7.11.07-10.67s-.07-6.95-.07-10.43.09-7.19.09-10.79c0-3.88-.09-7.76-.09-11.63V27.47A3.33,3.33,0,0,0,93,25.6a81.67,81.67,0,0,1,8.65-4.76,1.42,1.42,0,0,1,.55,1.38V87.94a6,6,0,0,1-.13,2.49c-.11.18-.23.34-.34.52a2.83,2.83,0,0,0-.18,1.41v259a2.27,2.27,0,0,1-.77,2.14A82.19,82.19,0,0,1,93,349.3Z"/><path class="v" d="M329.72,309.19c-.9-1.79-.41-3.72-.46-5.59-.11-3.59,0-7.18,0-10.77s.05-7.12.05-10.67-.05-7-.05-10.43.05-7.11.05-10.67-.05-6.95-.05-10.42.05-6.79.05-10.19-.05-7-.05-10.42.05-7.12.05-10.68-.05-6.94-.05-10.42V127.29c0-2.91-.05-5.82-.05-8.74V73.47c0-2.17.05-4.34,0-6.51a4.57,4.57,0,0,1,.21-1.64,133.07,133.07,0,0,1,10.8,13.8c.9,1.9.5,3.93.51,5.9V292.94a17.28,17.28,0,0,1-.3,2.49A128.12,128.12,0,0,1,329.72,309.19Z"/><path class="w" d="M58.19,51.79a1.45,1.45,0,0,1,.66,1.6,42.35,42.35,0,0,0,0,4.78c0,1.59,0,3.1.06,4.64v5.12c0,1.7,0,3.1-.06,4.65s0,3.18,0,4.78,0,3.09.06,4.64v5.12c0,1.55,0,3.1-.06,4.64s0,3.19,0,4.79,0,3.09.06,4.64v9.65c0,1.53-.08,3.19-.07,4.78s.13,3.1.12,4.65c0,2.31-.12,4.62-.14,6.94v116c0,1.41.13,2.82.14,4.23s-.05,3.09-.06,4.64,0,3.18,0,4.76V276c0,1.59,0,3.17.05,4.76s0,3.32,0,5v9.63c0,1.7-.07,3.18-.09,4.76s0,3,0,4.54v5.09c0,1.69.07,3.18.09,4.76s.06,3,0,4.54a21.9,21.9,0,0,0,0,3.24c0,.43.18.91-.49,1a109.29,109.29,0,0,1-9.25-9.39,9,9,0,0,1-.2-2.14V63.7a12.18,12.18,0,0,1,.11-2.63A115.12,115.12,0,0,1,58.19,51.79Z"/><path class="x" d="M26.82,90.91c.62.1.76.58.73,1.07-.19,2.81-.09,5.62-.09,8.43s0,5.7.05,8.55c0,2.3-.05,4.61-.05,6.91s.07,4.77.07,7.16q.06,80.24,0,160.47c0,.41.15.89-.29,1.21-2.31-3.49-4.25-7.18-6.21-10.87a181.62,181.62,0,0,1-7.86-17.14c-.1-.25-.16-.53-.24-.79a4.77,4.77,0,0,0,.29-2.45V120.14a6.79,6.79,0,0,0,0-1.91A168.84,168.84,0,0,1,26.82,90.91Z"/><path class="y" d="M49.1,61.07a3.53,3.53,0,0,1,.28,2V312.42c0,.5.17,1-.19,1.51a126.78,126.78,0,0,1-9.47-11.22c.68-.57.12-1.33.2-2a37.49,37.49,0,0,0-.06-4.74c0-1.59.12-3.18.12-4.76s-.1-3.17-.11-4.76.07-3.17.09-4.76,0-3,0-4.54v-5.09c0-1.7-.07-3.18-.09-4.76s0-3,0-4.54v-5.09c0-1.69.07-3.18.09-4.76s0-3,0-4.54c0-1.2-.12-2.39,0-3.6.15-1.63,0-3.29,0-4.94v-33.7c0-2.27-.08-4.54-.08-6.8s0-4.37.07-6.55V181.19c0-2.33-.08-4.54-.09-6.8s.07-4.37.08-6.55V134.3c0-1.64-.08-3,0-4.56,0-1.76-.08-3.53,0-5.27.08-1.37-.18-2.68-.18-4V74.08c0-.48.35-1.17-.5-1.38A128.39,128.39,0,0,1,49.1,61.07Z"/><path class="z" d="M247,365.06a92.78,92.78,0,0,1-10.55,3.31c-1,.28-2.08.48-3.13.72a1.53,1.53,0,0,1-.49-1.51,21.69,21.69,0,0,0,.1-3.12V238.23a33.43,33.43,0,0,0-.12-3.47c0-1,.85-1.14,1.55-1.39a67.38,67.38,0,0,0,11.23-4.88,1.48,1.48,0,0,1,1.23-.3c.69.47.53,1.22.53,1.86V363.52A2.2,2.2,0,0,1,247,365.06Z"/><path class="aa" d="M340.51,295.45c-.49-1,0-1.94,0-2.91-.1-5-.07-10,0-15.06,0-4.1.07-8.21.07-12.32,0-3.56-.07-7.11-.07-10.67,0-4,.07-7.91.07-11.87,0-3.56-.07-7.11-.07-10.67,0-4.11.07-8.22.07-12.33,0-3.55-.06-7.11-.06-10.67s.06-7,.06-10.42-.06-7.12-.06-10.68.06-7,.06-10.42-.06-7.12-.06-10.68.06-7,.06-10.42-.06-7.12-.06-10.68.06-7,.06-10.42-.06-7.12-.06-10.68.07-7.12.06-10.69-.06-7.11-.06-10.67.06-7,.07-10.43-.07-7,0-10.55c0-1-.23-2-.21-3.07a127.29,127.29,0,0,1,7.72,11.67c.58,1,1.1,1.94,1.65,2.91a2.31,2.31,0,0,1,.19,1c-.14,8.35,0,16.7-.06,25V277.49a18,18,0,0,0,.18,3.11A145.34,145.34,0,0,1,340.51,295.45Z"/><path class="ab" d="M350,280.65a.88.88,0,0,1-.57-.95V97.28a12.91,12.91,0,0,1,.26-3.56,97,97,0,0,1,4.88,8.89,130.32,130.32,0,0,1,5.73,12.49c-.8.61-.16,1.46-.16,2.09,0,1.69-.34,3.4.15,5.09a6.26,6.26,0,0,1-.19,2.11c-.07,1.55.12,3.1,0,4.65s.18,3.18.06,4.75,0,3.18-.06,4.77,0,3.17.07,4.75,0,3,0,4.54v5.09c0,1.7-.07,3.18-.09,4.76s0,3,0,4.54v5.09c0,1.7.08,3.17.1,4.76s0,3,0,4.54v5.09c0,1.7-.07,3.17-.09,4.76s0,3,0,4.54v5.09c0,1.7.08,3.17.1,4.76s0,3,0,4.53v5.1c0,1.7-.07,3.17-.09,4.76s0,3,0,4.53v5.1c0,1.7.08,3.17.1,4.76s0,3,0,4.53v5.1c0,1.7-.11,3.25-.13,4.87,0,1.34,0,2.67,0,4v5a42.22,42.22,0,0,0,.07,4.64c.08.67-.63,1.41.16,2a141,141,0,0,1-6.2,13.45C352.78,275.75,351.45,278.24,350,280.65Z"/><path class="ac" d="M233.06,234.24a13.05,13.05,0,0,1,.26,3.69V366c0,1-.51,2,0,3a92.21,92.21,0,0,1-11.75,2.59,1.84,1.84,0,0,1-.32-1.47c.11-8.78,0-17.56.05-26.34V239.13a2.47,2.47,0,0,0-.75-1.69c.07-.54.54-.54.9-.61,3.56-.72,7.07-1.6,10.55-2.61A1.2,1.2,0,0,1,233.06,234.24Z"/><path class="ad" d="M247,365.06V353.57c0-4.19.08-8.38.08-12.56s-.08-8.29-.08-12.44c0-4.82.09-9.63.09-14.45s-.09-9.56-.09-14.33.09-9.64.09-14.46S247,275.78,247,271s.09-9.64.09-14.45c0-5.26-.07-10.52-.09-15.78V229.16c0-.31.05-.65-.28-.85,0-.54.48-.71.85-.92a67.49,67.49,0,0,0,8-5.29,2.12,2.12,0,0,1,1.49-.66c.81.4.77,1.21.77,1.88V360a1.46,1.46,0,0,1-.25,1.13A67.55,67.55,0,0,1,247,365.06Z"/><path class="ae" d="M257.55,361.15c-.1-2.56,0-5.13-.06-7.68,0-2.21,0-4.43-.06-6.64,0-1.53-.05-3.09.06-4.65s-.06-3.18-.07-4.77,0-3.1,0-4.65V328c0-1.59,0-3.1-.06-4.65v-5.11c0-1.7,0-3.1.06-4.65s0-3.19,0-4.78V299c0-1.55.06-3.1.07-4.64s0-3.19,0-4.79v-9.76c0-1.7,0-3.1.07-4.65s0-3.11,0-4.67v-5c0-1.68,0-3.19-.06-4.78s0-3.1,0-4.65v-14c0-1.4-.06-3.09-.07-4.64v-5.12c0-1.55.11-3.1,0-4.65a37.13,37.13,0,0,0-.14-5.48c-.07-.36-.15-.61-.55-.65.31-1.24,1.48-1.71,2.31-2.43a73.78,73.78,0,0,0,6.81-7c.34-.39.62-.85,1.24-.79.68.29.57.91.58,1.44.09,3.67,0,7.33,0,11v18.28c0,3.47.07,6.94,0,10.4a8.91,8.91,0,0,0,.1,1.55,3.84,3.84,0,0,1-.58,1.67,22.27,22.27,0,0,0-.68,17.76,5.07,5.07,0,0,1,.56,1.82,19.87,19.87,0,0,0-.27,5.22V356.1a1.65,1.65,0,0,1-.45,1.21A63.8,63.8,0,0,1,257.55,361.15Z"/><path class="af" d="M13.22,118.25a.46.46,0,0,1,.42.49V254.49a9.73,9.73,0,0,1,0,1.08c-.05.41-.29.54-.67.34a78.47,78.47,0,0,1-3.13-8.45A185.08,185.08,0,0,1,.66,203.18,188.44,188.44,0,0,1,11,123.84,48.63,48.63,0,0,1,13.22,118.25Z"/><path class="ag" d="M220.57,237.42a1,1,0,0,1,1.12.86.82.82,0,0,1,0,.27c-.12,1.45,0,2.89-.05,4.33v6.33c0,1.52.05,3,.06,4.56v11.48c-.07,2.42,0,4.84,0,7.26,0,2.18-.09,4.37-.09,6.55s.06,4.54.08,6.8v4.33c-.06,2.42,0,4.84,0,7.27,0,2.18-.09,4.36-.09,6.55s.07,4.53.08,6.8c0,1.52-.05,3-.06,4.56s0,3.21,0,4.82v19.2c0,1.6.08,3,0,4.56v5.27c0,2.19-.06,4.37-.08,6.55,0,1.53-.08,3.06,0,4.58s0,3,.06,4.57c0,2.25-.09,4.51-.1,6.76-3,.6-6,1.14-9.1,1.46-.11-2.19.08-4.38.08-6.58V241.37a5.57,5.57,0,0,0-.32-2.59c-.13-.61.35-.64.72-.68,2.21-.27,4.41-.56,6.61-.91A1.1,1.1,0,0,1,220.57,237.42Z"/><path class="ah" d="M188,374.81a66.83,66.83,0,0,1-7.75-.16c.52-.54,1.2-.33,1.81-.35,1.41,0,1.63-.24,1.62-1.58,0-3.51-.07-7-.06-10.53v-122c0-.47-.07-1,.45-1.28a38.2,38.2,0,0,1,8,0c.57.31.49.86.49,1.37V346.74c0,6.3.12,12.61,0,18.91-.06,2.59-.11,5.19-.17,7.78,0,1.24-.13,1.29-1.41,1.32A18.54,18.54,0,0,0,188,374.81Z"/><path class="ai" d="M113.17,15.36a134.52,134.52,0,0,1,13-5c.48.22.55.65.59,1.1a11.37,11.37,0,0,1,0,1.43V88c0,.89.24,1.86-.56,2.6a2.57,2.57,0,0,1-1.39.27h-10.2a2.36,2.36,0,0,1-1.49-.33,2.67,2.67,0,0,1-.33-1.73V17.1A2.48,2.48,0,0,1,113.17,15.36Z"/><path class="aj" d="M164.93,373.44a70.8,70.8,0,0,1-9.6-1.43,5.28,5.28,0,0,1-.11-1.19V282.34c0-.94-.19-1.94.53-2.75a1.93,1.93,0,0,1,1.14-.31h8.71a2.76,2.76,0,0,1,.81.15c.51.25.4.73.41,1.15.1,3.67,0,7.34,0,11v62.17c0,6.1-.06,12.2-.14,18.3C166.72,373.44,166.42,373.63,164.93,373.44Z"/><path class="ak" d="M183.92,239.16V254.3c0,5.46.1,10.91.1,16.36,0,6.08-.08,12.17-.1,18.25v17.18c0,5.46.1,10.91.09,16.36,0,6.08-.09,12.17-.09,18.25S184,352.87,184,359v7.93a62.78,62.78,0,0,1-.11,6.86c-.08.8-.41.9-1.06.88h-2.63a21.71,21.71,0,0,1-4.26-.23,2.66,2.66,0,0,1-.38-1.72c-.53-30.44-.11-60.89-.24-91.33a3,3,0,0,1,.3-1.74,1.73,1.73,0,0,1,1-.35c1.56-.19,1.57-.2,1.57-1.84V240.12a1.2,1.2,0,0,1,1.33-1.35C181.05,238.84,182.55,238.35,183.92,239.16Z"/><path class="al" d="M206.23,373.87a57.63,57.63,0,0,1-7.43.54,2,2,0,0,1-.55-1.64c-.06-2.4.13-4.79.13-7.18V254.45c0-4.78.13-9.65,0-14.48,0-.4,0-.81.39-1.05a38.74,38.74,0,0,1,6.37-.14c1.1,0,1.28.78,1.28,1.65V365c0,2.4.3,4.79.21,7.19A2.34,2.34,0,0,1,206.23,373.87Z"/><path class="am" d="M178.16.23h6.72A55.84,55.84,0,0,1,185,6.16c0,1.54,0,3.09.07,4.65s0,3.18-.06,4.77,0,3,0,4.53.11,3.19.07,4.78,0,3.4,0,5.1,0,3.18-.07,4.77,0,3,0,4.54.11,3.18.07,4.77,0,3.4,0,5.1,0,3.19-.07,4.78,0,3,0,4.53.11,3.19.07,4.78,0,3.39,0,5.1,0,3.18-.07,4.77,0,3,0,4.53v5.12c0,1.55,0,3.1.08,4.64l.06,2.93a1.27,1.27,0,0,1-1.07.41c-3,0-5.94,0-8.91,0a1.87,1.87,0,0,1-.57-.12.82.82,0,0,1-.48-.88V2.05a1.82,1.82,0,0,1,.48-1.54Z"/><path class="an" d="M126.13,90.39a2.21,2.21,0,0,0,.24-1.38V11.74a2.42,2.42,0,0,0-.24-1.4,84.75,84.75,0,0,1,11.75-3.6c.75,1.3.38,2.73.39,4.1V89.19a1.39,1.39,0,0,1-.62,1.46,12.31,12.31,0,0,1-3.32.16h-6.55C127.22,90.81,126.59,90.91,126.13,90.39Z"/><path class="ao" d="M129.72,365.74a100.24,100.24,0,0,1-11.27-4.06,1.34,1.34,0,0,1-.22-.91c.16-16,0-32,.07-48v-31a3.79,3.79,0,0,1,.31-2.1,1.87,1.87,0,0,1,1.23-.35h8.93a1.87,1.87,0,0,1,1.24.32,2.62,2.62,0,0,1,.34,1.73v82.48C130.35,364.49,130.52,365.28,129.72,365.74Z"/><path class="ap" d="M206.23,373.87c-.53-42.23-.11-84.47-.24-126.7v-6.93c0-.8-.19-1.23-1-1.15a.76.76,0,0,1,.84-.53c1.79,0,3.57-.18,5.35-.27a1.29,1.29,0,0,1,1,.32c.51,0,.84.18.79.78V367.44a29.59,29.59,0,0,0,0,4.8c.07.43-.2.66-.47.9A52.56,52.56,0,0,1,206.23,373.87Z"/><path class="aq" d="M198.55,239.16c.31,3.25.1,6.51.14,9.76v17.21c0,2.88,0,5.7.07,8.55.09,2.22-.08,4.46-.09,6.68s.08,4.37.1,6.55v14.31c0,1.65-.06,3-.06,4.55v11.48c.06,2.42,0,4.84,0,7.26-.05,2.19.08,4.37.09,6.55s-.07,4.54-.08,6.81c0,1.52,0,3,.06,4.55s0,3.22,0,4.82v14.39c0,1.6.09,3.22,0,4.82a32.12,32.12,0,0,0,.07,7,86.36,86.36,0,0,1-10.79.4,7.12,7.12,0,0,1,2.94-.17c.91,0,1.16-.28,1.14-1.17-.1-6,.27-12,.17-18-.1-5.72,0-11.45,0-17.18,0-4.78.08-9.56.08-14.34s-.09-9.64-.09-14.46c0-5.41.09-10.82.09-16.24,0-4.82-.09-9.64-.09-14.46,0-5.41.09-10.82.09-16.23,0-4.82-.08-9.64-.09-14.46,0-3,.06-6,.1-9a1,1,0,0,1,.84-.38,43.16,43.16,0,0,1,4.55,0A1,1,0,0,1,198.55,239.16Z"/><path class="ar" d="M175.77,279.69v85.53c0,3.06.25,6.13.2,9.2a78.93,78.93,0,0,1-11.07-1c1.13.14,1.54-.31,1.51-1.48-.07-2.61.16-5.22.13-7.82,0-2.2,0-4.41,0-6.61a42,42,0,0,1,.06-4.76c.12-1.57-.11-3.16-.11-4.75s.12-3.17.12-4.76-.09-3.17-.1-4.75.06-3.18.08-4.76,0-3,0-4.54V314.7c0-1.58.05-3.17.05-4.76s-.07-3.17-.08-4.76,0-3.39,0-5.09.08-3.17.1-4.76,0-3,0-4.53v-5.1c0-1.7,0-3.17-.13-4.75a7,7,0,0,1,.2-1.28,1.38,1.38,0,0,1,1.2-.41h6.71A1.4,1.4,0,0,1,175.77,279.69Z"/><path class="as" d="M155.86,279.69a6.13,6.13,0,0,0-.24,2v88.75c0,.53.24,1.13-.28,1.57a69.72,69.72,0,0,1-9.81-1.93,136.55,136.55,0,0,0,.36-14.59V282a4.09,4.09,0,0,1,.3-2.34,1.58,1.58,0,0,1,1-.33h7.6A1.26,1.26,0,0,1,155.86,279.69Z"/><path class="aj" d="M156.34,2.66a58.49,58.49,0,0,1,8.82-1.23c.84,0,.77.68.77,1.19V88.67a2.22,2.22,0,0,1-.66,2,15.87,15.87,0,0,1-4.13.17,23.76,23.76,0,0,1-4.84-.15c-.84-.69-.43-1.66-.43-2.46V4.15A2,2,0,0,1,156.34,2.66Z"/><path class="at" d="M113.17,15.36v75a1.68,1.68,0,0,1-1.45.42h-8.38a1.68,1.68,0,0,1-1.45-.42c0-5.85-.09-11.7-.09-17.55,0-5.41.08-10.82.09-16.23,0-4.82-.09-9.64-.09-14.46,0-5.41.1-10.83.07-16.24a19.15,19.15,0,0,0-.23-5.07A104.57,104.57,0,0,1,113.17,15.36Z"/><path class="au" d="M156.34,2.66c-.16,2.64,0,5.27-.08,7.9,0,2.2,0,4.41-.06,6.61v9.52c0,1.58-.08,3.16.05,4.76s-.19,3.17-.07,4.75,0,3.17.06,4.76,0,3.17-.07,4.75,0,3,0,4.54v5.09c0,1.69.08,3.18.1,4.76s0,3,0,4.54v5.09c0,1.7-.08,3.17-.1,4.76s0,3,0,4.53v5.1c0,1.7,0,3.17.13,4.75,0,.56-.27,1-.2,1.52a1.38,1.38,0,0,1-1.2.42h-6.83a1.76,1.76,0,0,1-1.13-.32,4,4,0,0,1-.33-2.44V8.16c0-1.2,0-2.4-.11-3.59a66,66,0,0,1,7.35-1.49C154.72,3,155.51,2.8,156.34,2.66Z"/><path class="av" d="M165.46,90.39a50.21,50.21,0,0,0,.17-7.46V76.3c0-1.53-.06-3.09.06-4.65s-.07-3.18-.08-4.77.06-3.1.07-4.65,0-3.18,0-4.78V47.69c0-1.7,0-3.1.07-4.65s0-3.11,0-4.67v-5c0-1.68.05-3,0-4.55V23.71c0-1.71-.06-3.18-.07-4.77s0-3.1,0-4.65V9.51a39.57,39.57,0,0,0,0-4.87c-.12-1.07.56-2.28-.43-3.23A48.24,48.24,0,0,1,172.44.7c.48-.23,1,0,1.49-.17h.73a41.55,41.55,0,0,0-.06,5.69c0,1.58-.11,3.17-.11,4.76s.07,3.17.09,4.76,0,3,0,4.53v5.1c0,1.7-.08,3.18-.1,4.76s0,3,0,4.54v5.1c0,1.55.05,3.1.06,4.65s0,3.17,0,4.76V87.74a11.46,11.46,0,0,1-.08,2.68,1.41,1.41,0,0,1-1.2.42h-6.47A1.39,1.39,0,0,1,165.46,90.39Z"/><path class="aw" d="M118.72,279.69v79.74c0,.77-.19,1.5-.26,2.25a105.43,105.43,0,0,1-10.08-4.33c.22-8.38.08-16.77.09-25.16V281.84a3.85,3.85,0,0,1,.31-2.22,1.58,1.58,0,0,1,1-.33h7.84A1.29,1.29,0,0,1,118.72,279.69Z"/><path class="ax" d="M266.42,357.35c.16-2.64.07-5.28,0-7.92,0-2.21.21-4.43.11-6.63-.07-1.55,0-3.1-.08-4.65s0-3.19.06-4.78,0-3,0-4.53v-5.12c0-1.7-.06-3.1-.07-4.65s0-3.11,0-4.67v-9.56c.06-1.7,0-3.4,0-5.1s.06-3.18.07-4.78,0-3.09,0-4.64v-4.9c0-1.63-.07-3.1,0-4.64.11-1.84-.49-3.74.38-5.52.45,0,.57.4.75.69a19.88,19.88,0,0,0,8.18,7.51,2.88,2.88,0,0,1,1.51,1.12c-.25,4.35-.08,8.69-.1,13v36.49c0,5.66.09,11.32-.06,17a1.28,1.28,0,0,1-.21.91A98.47,98.47,0,0,1,266.42,357.35Z"/><path class="ay" d="M146.49,4.57a.51.51,0,0,1,.5.52V90.43a1.41,1.41,0,0,1-1.2.42h-6.71a1.39,1.39,0,0,1-1.2-.42c.1-2.57,0-5.15,0-7.73,0-2.22.1-4.45.1-6.68s-.1-4.36-.1-6.55.08-4.53.08-6.8-.06-4.37-.07-6.55V34.93c0-2.32.09-4.54.1-6.81s-.07-4.36-.09-6.55c0-1.52-.09-3.06,0-4.58s0-3,.07-4.56c.13-1.87-.06-3.76-.11-5.64A58.45,58.45,0,0,1,146.49,4.57Z"/><path class="ay" d="M146.27,279.69v85.72c0,1.32-.39,2.6-.26,3.93a.73.73,0,0,1-.5.74,63.12,63.12,0,0,1-7.66-1.93,78.88,78.88,0,0,1-.2-8.83V281.5c0-.76-.06-1.53.66-2.06a46.07,46.07,0,0,1,7.24-.11A.84.84,0,0,1,146.27,279.69Z"/><path class="an" d="M138.12,279.69c-.19,2,0,4.11-.08,6.16s0,4.41-.07,6.61c0,1.56.05,3.17.05,4.75s.07,3.16-.06,4.76.19,3.17.07,4.74,0,3.17-.06,4.76.05,3.17.07,4.76,0,3,0,4.53v5.09c0,1.7-.07,3.17-.09,4.76s0,3,0,4.53v5.09c0,1.7.07,3.17.08,4.76s0,3,0,4.53v5.09c0,1.7-.08,3.17-.08,4.76a47,47,0,0,1,0,4.75c-.13,1.35.53,2.71-.12,4-2.24-.3-4.3-1.25-6.47-1.81-.57-.15-1.11-.4-1.67-.6a2.73,2.73,0,0,0,.24-1.64V279.69a1.31,1.31,0,0,1,1.09-.41h6A1.27,1.27,0,0,1,138.12,279.69Z"/><path class="az" d="M108.86,279.69v76.07c0,.56.24,1.23-.48,1.59a59.56,59.56,0,0,1-7.67-3.82c.65-1.42.35-2.94.41-4.41s0-3.25,0-4.87v-9.67c0-1.68,0-3,0-4.55-.05-1.71,0-3.41,0-5.11s-.07-3.18-.08-4.78,0-3.09,0-4.64V306c0-1.55,0-3.19,0-4.78s0-3.33,0-5,0-3.18-.06-4.78,0-3.09,0-4.64a47.63,47.63,0,0,0,0-4.78,20.69,20.69,0,0,1,.12-2.23V92c0-.54-.2-1.12.22-1.61a1.84,1.84,0,0,1,.4,1.35V276.53c0,3-.17,2.7,2.72,2.73h2.88C107.93,279.28,108.47,279.23,108.86,279.69Z"/><path class="ba" d="M304.93,277.69c.43.06.88.23.78.71a40.3,40.3,0,0,0-.11,4.53,42,42,0,0,0,.07,4.76c.07,1.59,0,3,0,4.54v5.09c0,1.7-.09,3.18-.1,4.76s0,3,0,4.54v5.1c0,1.7.09,3.17.11,4.76s0,3,0,4.53v9.52a3.69,3.69,0,0,0,.36,1.91,99.68,99.68,0,0,1-10.57,8.07c-.71-.34-.73-1-.74-1.64V295.39c0-3.43-.06-6.87,0-10.3.13-.55.6-.69,1-.86a19.72,19.72,0,0,0,8.33-6C304.3,278,304.51,277.7,304.93,277.69Z"/><path class="bb" d="M277,352c0-1.79,0-3.58-.06-5.37v-40.5c0-2.32-.1-4.54-.1-6.81s.07-4.36.08-6.55c0-1.6-.07-3.21,0-4.82,0-1.15-.27-2.34.29-3.45a.79.79,0,0,1,.89-.11,40.17,40.17,0,0,0,7.43,1.45,1.45,1.45,0,0,1,.55.2c.66,1.17.18,2.42.2,3.63.07,4.18,0,8.37,0,12.55v43.39a1.55,1.55,0,0,1-.22,1.15A101.93,101.93,0,0,1,277,352Z"/><path class="bc" d="M286.08,346.74a39.64,39.64,0,0,1-.05-5.45c0-1.58-.22-3.18-.1-4.75s0-3.18.06-4.77,0-3.17-.07-4.75,0-3,0-4.54v-5.09c0-1.7.08-3.17.09-4.76s0-3,0-4.53V303c0-1.7-.07-3.17-.09-4.75s0-3,0-4.54v-5.09c0-.83.11-1.65.16-2.48a1.11,1.11,0,0,1,.87-.34,35.16,35.16,0,0,0,7-1,1.14,1.14,0,0,1,1,.08v17.89c0,6,.1,12.16.1,18.24s-.06,11.92-.1,17.88a3.86,3.86,0,0,0,.47,1.59A104.86,104.86,0,0,1,286.08,346.74Z"/><path class="am" d="M173.84.55c-.46.36-1,.14-1.49.17A3,3,0,0,1,173.84.55Z"/><path class="bd" d="M304.55,41.29a38.64,38.64,0,0,1,.23,7.05V250.11c0,.69.18,1.46-.53,2a1.58,1.58,0,0,1-1.18-.71,19.9,19.9,0,0,0-11.2-5.92c-.42-.09-1,0-1-.69.58-.93.32-2,.32-2.93V33.73a3.1,3.1,0,0,1,.44-2.06,127.7,127.7,0,0,1,10.71,7.7A11.91,11.91,0,0,1,304.55,41.29Z"/><path class="be" d="M291.6,31.69a74.48,74.48,0,0,0-.13,7.47c0,2.2,0,4.42.06,6.63v4.77c0,1.59,0,3.09.06,4.64s0,3.19-.06,4.78,0,3,0,4.53v5.12c0,1.55.06,3.1.07,4.65s0,3.11,0,4.66v9.55c-.06,1.7,0,3.4,0,5.1s-.05,3.18-.07,4.78,0,3,0,4.53.11,3.19.07,4.78,0,3.4,0,5.1-.05,3.18-.07,4.78,0,3,0,4.53V132c0,1.55.05,3.19.06,4.78s0,3.32,0,5,0,3.19-.06,4.78,0,3.1,0,4.65.05,3.19.05,4.78v5c0,1.68-.05,3.19-.06,4.78s0,3.1,0,4.65,0,3.18.05,4.78,0,3.32,0,5-.05,3.19-.06,4.78,0,3.1,0,4.65V204c0,1.6-.06,3.09-.07,4.64v28.94c0,1.55.06,3.19,0,4.78a5.55,5.55,0,0,0,.06,1.15c.09.62,0,1.23-.74,1.41a1.75,1.75,0,0,1-1.58.28,24.24,24.24,0,0,0-7.92.41,4.14,4.14,0,0,1-1.53.15c-.54-.29-.41-.82-.42-1.27-.09-5.66,0-11.33,0-17V188.29c0-.39.08-.84-.33-1.13.17-1.67.7-3.27,1-4.91A84.93,84.93,0,0,0,281.72,167a88.05,88.05,0,0,0-2.2-22.07,30.59,30.59,0,0,1-1.2-5c.7-1.6.38-3.29.4-4.94V25.36a1.57,1.57,0,0,1,.42-1.32A126,126,0,0,1,291.6,31.69Z"/><path class="bf" d="M279.13,24a53,53,0,0,0,0,5.35c0,1.59-.1,3.18-.1,4.77s.06,3.1.08,4.65,0,3.11,0,4.67v5c0,1.68,0,3.19-.07,4.78s0,3,0,4.53v5.12c0,1.55,0,3.09,0,4.64s0,3.19,0,4.78,0,3.1-.06,4.65,0,3.41,0,5.12c0,1.54,0,3.09.05,4.64s0,3.19,0,4.78-.05,3.1-.06,4.64v5.12c0,1.55,0,3.1.05,4.65s0,3.18,0,4.78-.05,3.09-.06,4.64v5.12c0,1.71,0,3.25.05,4.88s0,3.19,0,4.78v9.18a.57.57,0,0,1-.55.55c-.54-.27-.59-.83-.76-1.3A65.48,65.48,0,0,0,267,119a1.7,1.7,0,0,1-.52-1c.24-4.58.07-9.17.1-13.76V31.37c0-4.15.06-8.3,0-12.45a1.46,1.46,0,0,1,.32-1.12,71.58,71.58,0,0,1,8.13,3.93C276.42,22.44,277.72,23.27,279.13,24Z"/><path class="z" d="M236,6.48a84.82,84.82,0,0,1,11.26,3.39c.94,1,.47,2.31.48,3.45q.06,8.43,0,16.86v70.76a.93.93,0,0,1-.33.85c-.56.17-1-.16-1.45-.39a85.76,85.76,0,0,0-9.08-4.19c-.56-.2-1.12-.45-1.22-1.16a12,12,0,0,1-.07-1.8V8.78C235.58,8,235.38,7.17,236,6.48Z"/><path class="ae" d="M266.9,17.8c.05,3.33.24,6.67.12,10-.11,2.86-.07,5.71-.07,8.56V45c0,2.89,0,5.7-.07,8.55-.09,2.23.09,4.46.09,6.69s-.09,4.37-.09,6.55,0,4.54.07,6.81c0,1.44.05,2.88,0,4.33-.06,2.42,0,4.84,0,7.27.05,2.18-.08,4.36-.09,6.55s.08,4.54.08,6.81-.06,4.36-.07,6.55c0,1.6.09,3.21,0,4.82-.12,2.68.29,5.38-.22,8.06a1.38,1.38,0,0,1-1-.63,86.28,86.28,0,0,0-8.35-8.32c-.32-.28-.74-.52-.66-1.06.28-3.34.09-6.69.12-10V14.79A2.85,2.85,0,0,1,257,13.5,71,71,0,0,1,266.9,17.8Z"/><path class="bg" d="M236,6.48v90a1.14,1.14,0,0,1-1.13,0c-2.69-.94-5.44-1.71-8.18-2.47-.54-.14-1.08-.32-1.27-1a10.53,10.53,0,0,1-.12-2.38V6.85c0-1-.36-2,.13-2.94A95.74,95.74,0,0,1,236,6.48Z"/><path class="ad" d="M257.07,13.47c.55.76.12,1.63.16,2.42.14,2.2-.17,4.42-.07,6.62.08,1.55,0,3.1.09,4.65s-.06,3.18-.06,4.78v24c0,1.68,0,3.19-.06,4.78s0,3.1,0,4.65v9.78c0,1.68,0,3.18-.06,4.78s0,3.09,0,4.64V99c0,1.55-.06,3.1-.07,4.65s0,2.86,0,4.29c0,.11-.22.21-.34.31-.42.2-.68-.13-1-.33a85.5,85.5,0,0,0-8.14-5.45c-.26-.15-.62-.25-.52-.69.54-.7.17-1.56.15-2.25-.08-2.21,0-4.43,0-6.63V86.24a42.36,42.36,0,0,0-.06-4.78c-.14-1.53.08-3.09.09-4.64s-.05-3.19-.07-4.78,0-3,0-4.54V62.39c0-1.7,0-3.1.06-4.65s0-3.19,0-4.78,0-3.1-.06-4.65V43.19c0-1.55,0-3.1.06-4.64s0-3.19,0-4.79V24c0-1.7,0-3.1.07-4.65s0-3,0-4.43c0-1.2-.07-2.4,0-3.6a6.09,6.09,0,0,0-.22-1.4A86.83,86.83,0,0,1,257.07,13.47Z"/><path class="bh" d="M225.41,3.91A10.68,10.68,0,0,1,225.65,7V93.31c-.39.34-.83.2-1.25.11-2.56-.59-5.16-1-7.74-1.41-.55-.09-1.14-.11-1.35-.78a5.86,5.86,0,0,1-.12-1.67V4.82c0-.9-.15-1.87.63-2.59Q220.65,2.86,225.41,3.91Z"/><path class="al" d="M197.11,90.39a2.62,2.62,0,0,1-.23-1.63V.31c3.21.15,6.41.3,9.59.7.54.61.39,1.36.39,2.07v85.1c0,2.54,0,2.54-2.5,2.62-2,0-4,0-5.94,0A1.52,1.52,0,0,1,197.11,90.39Z"/><path class="bi" d="M204.24,90.46c2.23-.09,2.23-.09,2.23-2.35V1c3.14.27,6.26.67,9.36,1.22a10.64,10.64,0,0,0-.24,3.08v86.1a1.37,1.37,0,0,1-1.23.29,79.64,79.64,0,0,0-9-.69C204.9,91,204.41,91,204.24,90.46Z"/><path class="bj" d="M204.24,90.46l8.5.69,2.83.26,8.68,1.64,1.4.26c3.45,1,6.91,2,10.31,3.14a119,119,0,0,1,11.28,5.25,95.53,95.53,0,0,1,9.61,6.47,83.3,83.3,0,0,1,9.87,9.83,71.21,71.21,0,0,1,8.21,13c1.37,2.87,2.44,5.85,3.52,8.84a83.78,83.78,0,0,1,3.19,15.67,92.63,92.63,0,0,1,0,18.54,86.52,86.52,0,0,1-2.48,13.26c.23.36.06.7,0,1a67.42,67.42,0,0,1-10.85,21.76,3.82,3.82,0,0,1-1.43,1.42c-2,2.18-3.85,4.43-6,6.41-1.35,1.24-2.72,2.44-4.08,3.65a110,110,0,0,1-10.08,6.76,74.78,74.78,0,0,1-8.41,3.94l-5.24,2c-4.1,1.32-8.3,2.21-12.49,3.18l-8.42,1.19-7.19.48-6.41.07H183.92c-1.31,0-2.63,0-3.94-.06-1.06-.08-1.4.2-1.39,1.34q.06,18.38,0,36.75c0,2.43,0,2.42-2.38,2.46H108.86c-2.2,0-4.39-.06-6.59,0-.72,0-1-.17-.94-.93a5.89,5.89,0,0,0,0-.84V92c0-.52,0-1,.07-1.55H204.24Z"/><path class="bk" d="M279.62,245.55a26.11,26.11,0,0,1,18.2,1.51,23.31,23.31,0,0,1,6.42,5A21.57,21.57,0,0,1,308.58,266a21.26,21.26,0,0,1-3.65,11.71,21,21,0,0,1-10,7.22,33.33,33.33,0,0,1-8.88,1.23,35.35,35.35,0,0,1-8.87-1.66,20.5,20.5,0,0,1-9.78-8.4c-.16-.28-.34-.54-.51-.8a24.09,24.09,0,0,1-2.17-8.87,22.71,22.71,0,0,1,3-12.43,3.52,3.52,0,0,1,1-1.84,20.09,20.09,0,0,1,10-6.64A1,1,0,0,1,279.62,245.55Z"/><path class="bl" d="M279.62,245.55a21.54,21.54,0,0,0-9.26,5.26c-1,1-1.75,2.16-2.64,3.22-.77-1.17-.24-2.46-.29-3.68-.12-3.4,0-6.8,0-10.2V212.09a.5.5,0,0,0-.46-.54h-.05a73.21,73.21,0,0,0,8.33-13.5,82.22,82.22,0,0,0,4-10.72c.37.21.56,1,.55,1.7,0,2.92-.08,5.83-.1,8.75s0,5.76,0,8.64v34.33C279.66,242.33,279.63,243.94,279.62,245.55Z"/><path class="bm" d="M193.72,149.94a14.28,14.28,0,0,1,12,13.06,22.36,22.36,0,0,1-.79,9.34c-1.8,5.43-5.73,8.44-11.2,9.63a2,2,0,0,1-.37-1.58V151.74A3.05,3.05,0,0,1,193.72,149.94Z"/><path class="ah" d="M193.72,149.94V182a26.52,26.52,0,0,1-8.87.79c-.53-.76-.28-1.64-.28-2.45V150.89c0-1.16-.16-1.34-1.3-1.36H178c-.51,0-1.05.09-1.47-.33.06,0,.13-.12.2-.11,4.93,0,9.87-.27,14.79.35A7.19,7.19,0,0,1,193.72,149.94Z"/><path class="am" d="M176.57,149.19h6.93c1.35,0,1.56.33,1.51,1.69-.07,2.37,0,4.75,0,7.13v18c0,1.61-.1,3.22,0,4.81a14.8,14.8,0,0,0-.07,2l-7.66.07c-.55,0-.79-.14-.79-.74V149.51A1.16,1.16,0,0,1,176.57,149.19Z"/></svg>